<svg width="33" height="37" viewBox="0 0 33 37" fill="none" xmlns="http://www.w3.org/2000/svg">
<path fill-rule="evenodd" clip-rule="evenodd" d="M23.7934 18.5203L23.7938 18.5202C25.9742 19.4085 30.8438 21.7182 32.8789 23.8501C32.8896 23.8614 32.8996 23.8727 32.9088 23.8843L33 23.8501V12.8268L0 0.349976L0.0513107 7.37579C0.0513107 8.466 1.0689 10.9371 3.68541 12.1C5.47859 12.897 11.5844 14.7636 17.082 16.4443C19.6063 17.2159 22.0023 17.9484 23.7938 18.5202L23.7934 18.5203Z" fill="#C34863"/>
<path fill-rule="evenodd" clip-rule="evenodd" d="M0.0513916 29.6646V36.2059L32.9088 23.8843C32.8996 23.8728 32.8896 23.8614 32.8789 23.8502C30.8439 21.7182 25.9743 19.4086 23.7938 18.5203L23.7932 18.5204L15.4355 21.064C13.1536 21.8484 8.29017 23.3254 5.26524 24.2441C4.86445 24.3658 4.49593 24.4777 4.16997 24.5769C1.40419 25.4187 0.253283 28.2514 0.0513916 29.6646Z" fill="#1A9989"/>
</svg>
