<svg width="379" height="420" viewBox="0 0 379 420" fill="none" xmlns="http://www.w3.org/2000/svg">
<path d="M20 5H330C338.284 5 345 11.7157 345 20V400C345 408.284 338.284 415 330 415H50C25.1472 415 5 394.853 5 370V20C5 11.7157 11.7157 5 20 5Z" fill="white"/>
<path d="M20 5H330C338.284 5 345 11.7157 345 20V400C345 408.284 338.284 415 330 415H50C25.1472 415 5 394.853 5 370V20C5 11.7157 11.7157 5 20 5Z" fill="url(#paint0_linear_209_33)" fill-opacity="0.2"/>
<path d="M20 5H330C338.284 5 345 11.7157 345 20V400C345 408.284 338.284 415 330 415H50C25.1472 415 5 394.853 5 370V20C5 11.7157 11.7157 5 20 5Z" stroke="#E5E5E5" stroke-width="10"/>
<rect x="35" y="35" width="140" height="20" rx="5.71429" fill="#D2D5DB"/>
<rect x="35" y="70" width="210" height="20" rx="5.71429" fill="#D2D5DB"/>
<rect x="35" y="105" width="175" height="20" rx="5.71429" fill="#D2D5DB"/>
<rect x="35" y="140" width="105" height="20" rx="5.71429" fill="#D2D5DB"/>
<path d="M80.5676 378.25C80.5676 406.039 61.8407 413.829 49.9848 414.5L336.863 415C349.242 415 374 407.65 374 378.25C374 348.85 349.242 341.835 336.863 342.003H45C56.8559 342.506 80.5676 350.461 80.5676 378.25Z" fill="white"/>
<path d="M80.5676 378.25C80.5676 406.039 61.8407 413.829 49.9848 414.5L336.863 415C349.242 415 374 407.65 374 378.25C374 348.85 349.242 341.835 336.863 342.003H45C56.8559 342.506 80.5676 350.461 80.5676 378.25Z" fill="url(#paint1_linear_209_33)" fill-opacity="0.2"/>
<path d="M49.9848 414.5L49.7022 409.508L49.9761 419.5L49.9848 414.5ZM45 342.003V337.003C42.2799 337.003 40.0588 339.177 40.0011 341.897C39.9434 344.616 42.0702 346.883 44.7879 346.998L45 342.003ZM336.863 342.003V347.003H336.897L336.931 347.002L336.863 342.003ZM336.863 415L336.855 420H336.863V415ZM50.2675 419.492C57.0242 419.109 65.845 416.711 73.0528 410.273C80.4129 403.7 85.5676 393.378 85.5676 378.25H75.5676C75.5676 390.911 71.3588 398.379 66.3915 402.815C61.2719 407.387 54.8014 409.219 49.7022 409.508L50.2675 419.492ZM85.5676 378.25C85.5676 362.689 78.8226 352.301 70.2185 345.886C61.8411 339.639 51.9206 337.292 45.2121 337.007L44.7879 346.998C49.9352 347.217 57.7985 349.099 64.2409 353.903C70.4567 358.537 75.5676 366.021 75.5676 378.25H85.5676ZM45 347.003H336.863V337.003H45V347.003ZM336.931 347.002C342.333 346.929 350.523 348.463 357.209 353.137C363.627 357.622 369 365.205 369 378.25H379C379 361.894 371.994 351.27 362.938 344.94C354.151 338.798 343.772 336.909 336.796 337.003L336.931 347.002ZM369 378.25C369 391.298 363.621 398.983 357.172 403.578C350.466 408.356 342.263 410 336.863 410V420C343.842 420 354.208 417.969 362.975 411.722C372 405.292 379 394.602 379 378.25H369ZM336.872 410L49.9936 409.5L49.9761 419.5L336.855 420L336.872 410Z" fill="#E5E5E5"/>
<defs>
<linearGradient id="paint0_linear_209_33" x1="175" y1="420" x2="175" y2="4.72819e-07" gradientUnits="userSpaceOnUse">
<stop/>
<stop offset="1" stop-opacity="0"/>
</linearGradient>
<linearGradient id="paint1_linear_209_33" x1="209.5" y1="415" x2="209.5" y2="342" gradientUnits="userSpaceOnUse">
<stop/>
<stop offset="1" stop-opacity="0"/>
</linearGradient>
</defs>
</svg>
